<?xml version="1.0" encoding="UTF-8" standalone="no"?>
<svg
   width="1919.9999"
   height="370.66248"
   viewBox="0 0 507.99996 98.071117"
   version="1.1"
   id="svg8"
   inkscape:version="1.1.1 (3bf5ae0d25, 2021-09-20, custom)"
   sodipodi:docname="new_mintMe_logo_clean.svg"
   inkscape:export-filename="/home/irving/Trabajo/ABC Hosting/Sources/Logos/new_mintMe_logo.png"
   inkscape:export-xdpi="96"
   inkscape:export-ydpi="96"
   xmlns:inkscape="http://www.inkscape.org/namespaces/inkscape"
   xmlns:sodipodi="http://sodipodi.sourceforge.net/DTD/sodipodi-0.dtd"
   xmlns:xlink="http://www.w3.org/1999/xlink"
   xmlns="http://www.w3.org/2000/svg"
   xmlns:svg="http://www.w3.org/2000/svg"
   xmlns:rdf="http://www.w3.org/1999/02/22-rdf-syntax-ns#"
   xmlns:cc="http://creativecommons.org/ns#"
   xmlns:dc="http://purl.org/dc/elements/1.1/">
  <defs
     id="defs2">
    <color-profile
       name="U.S.-Web-Coated--SWOP--v2"
       xlink:href="file:///usr/share/color/icc/USWebCoatedSWOP.icc"
       id="color-profile1568155" />
    <color-profile
       name="sRGB"
       xlink:href="file:///usr/share/color/icc/colord/sRGB.icc"
       id="color-profile1568157" />
  </defs>
  <sodipodi:namedview
     id="base"
     pagecolor="#ffffff"
     bordercolor="#666666"
     borderopacity="1.0"
     inkscape:pageopacity="0.0"
     inkscape:pageshadow="2"
     inkscape:zoom="0.44010419"
     inkscape:cx="897.51474"
     inkscape:cy="274.93489"
     inkscape:document-units="px"
     inkscape:current-layer="layer1"
     showgrid="false"
     units="px"
     inkscape:document-rotation="0"
     inkscape:showpageshadow="false"
     objecttolerance="20"
     inkscape:snap-path-clip="false"
     inkscape:snap-path-mask="false"
     guidetolerance="20"
     inkscape:snap-bbox="false"
     inkscape:bbox-paths="false"
     inkscape:snap-bbox-edge-midpoints="false"
     inkscape:snap-bbox-midpoints="false"
     inkscape:snap-page="true"
     showguides="true"
     inkscape:guide-bbox="true"
     inkscape:pagecheckerboard="0"
     inkscape:window-width="1920"
     inkscape:window-height="980"
     inkscape:window-x="0"
     inkscape:window-y="28"
     inkscape:window-maximized="1"
     fit-margin-top="0"
     fit-margin-left="0"
     fit-margin-right="0"
     fit-margin-bottom="0" />
  <metadata
     id="metadata5">
    <rdf:RDF>
      <cc:Work
         rdf:about="">
        <dc:format>image/svg+xml</dc:format>
        <dc:type
           rdf:resource="http://purl.org/dc/dcmitype/StillImage" />
      </cc:Work>
    </rdf:RDF>
  </metadata>
  <g
     inkscape:label="Capa 1"
     inkscape:groupmode="layer"
     id="layer1"
     transform="translate(-22.949893,-115.702)">
    <g
       id="g1527281"
       transform="matrix(1.1103912,0,0,1.1103912,-2.5334672,-12.772488)">
      <path
         id="path1477014"
         style="fill:#ffffff;fill-opacity:1;stroke:none;stroke-width:0.264583px;stroke-linecap:butt;stroke-linejoin:miter;stroke-opacity:1"
         d="m 162.00614,138.41225 -3.35173,18.09554 -4.02353,25.02276 h 9.81955 l 4.88911,-26.91877 5.17643,25.14782 -5.2e-4,5.1e-4 0.36432,1.77044 h 5.2e-4 7.92613 5.2e-4 l 0.56482,-0.99839 v -5.2e-4 l 13.58935,-24.02437 -4.02352,25.02328 h 9.82007 l 7.83053,-43.1183 H 197.9564 l -17.06769,30.10617 -6.22288,-30.10617 h -2.38435 z" />
      <path
         style="fill:#ffffff;fill-opacity:1;stroke:none;stroke-width:0.264583px;stroke-linecap:butt;stroke-linejoin:miter;stroke-opacity:1"
         d="m 215.98053,147.03042 h 10.60889 l -6.28153,34.50026 h -10.71818 z"
         id="path1483753" />
      <path
         id="path1488448"
         style="fill:#ffffff;fill-opacity:1;stroke:none;stroke-width:0.999999px;stroke-linecap:butt;stroke-linejoin:miter;stroke-opacity:1"
         d="m 968.71289,512.64844 c -14.71842,-0.0543 -31.9813,5.04714 -48.64258,16.78125 l 2.95703,-16.24414 h -40.09765 l -24.1543,130.39453 h 40.50977 l 14.73632,-80.9336 c 9.23619,-17.70226 48.83687,-22.65195 47.44141,12.44922 l -12.68555,68.48438 h 40.50977 l 17.21879,-94.57617 c 4.2633,-21.82679 -13.21748,-36.26481 -37.79301,-36.35547 z"
         transform="matrix(0.26458334,0,0,0.26458334,0,11.249983)" />
      <path
         id="path1493197"
         style="opacity:1;fill:#ffffff;fill-opacity:1;stroke:none;stroke-width:0.295788px;stroke-linecap:butt;stroke-linejoin:miter;stroke-opacity:1"
         d="m 277.3639,138.41233 -1.27743,8.61808 h -3.97031 l -1.75546,9.47694 h 4.3212 c -2.11785,10.68134 -7.206,25.02438 7.01023,25.02438 h 5.60274 l 1.72548,-9.47694 h -2.81842 c 0,0 -1.90973,0.0859 -2.4481,-0.55458 -0.65872,-0.78368 -0.15331,-3.06742 -0.15331,-3.06742 l 1.73686,-11.92434 h 6.5133 l 1.72548,-9.47694 h -6.858 l 1.25524,-8.61808 z m 9.18136,36.08669 c -3.2e-4,0.009 -6.5e-4,0.0175 -10e-4,0.0263 3.5e-4,-0.009 6.8e-4,-0.0175 10e-4,-0.0263 z m -0.003,0.0734 c -6.4e-4,0.011 -10e-4,0.0221 -0.002,0.0331 6.9e-4,-0.011 0.001,-0.0221 0.002,-0.0331 z m -4.33668,6.3469 c -0.14838,0.0637 -0.29884,0.12251 -0.45114,0.17621 v -5.1e-4 c 0.15229,-0.0535 0.30276,-0.11213 0.45114,-0.1757 z"
         sodipodi:nodetypes="cccccccccaccccccccccccccccc" />
      <path
         id="path1488452"
         style="fill:#d1b000;fill-opacity:1;stroke:none;stroke-width:0.264583px;stroke-linecap:butt;stroke-linejoin:miter;stroke-opacity:1"
         d="m 300.6479,138.41225 -3.35173,18.09554 -4.02353,25.02276 h 9.81955 l 4.88911,-26.91877 5.17643,25.14782 -5.2e-4,5.1e-4 0.36432,1.77044 h 5.2e-4 7.92613 5.2e-4 l 0.56482,-0.99839 v -5.2e-4 l 13.58935,-24.02437 -4.02352,25.02328 h 9.82007 l 7.83053,-43.1183 h -12.63179 l -17.06769,30.10617 -6.22288,-30.10617 h -2.38435 z" />
      <ellipse
         style="fill:#ffffff;fill-opacity:1;stroke:none;stroke-width:0.449893"
         id="path1488509"
         cx="151.86963"
         cy="213.68019"
         rx="6.3075585"
         ry="5.5847979"
         transform="rotate(-22.758636)" />
      <path
         id="path1502737"
         style="opacity:1;fill:#d1b000;fill-opacity:1;stroke:none;stroke-width:1.71324"
         d="m 1398.7988,511.2832 a 60.619304,73.037713 46.579181 0 0 -78.7129,66.77539 60.619304,73.037713 46.579181 0 0 53.8946,66.77539 60.619304,73.037713 46.579181 0 0 69.5097,-42.23046 h -45.791 a 25.385034,35.901302 25.355731 0 1 -20.5976,9.67187 25.385034,35.901302 25.355731 0 1 -20.1914,-24.66016 h 51.0136 20.8106 21.5 a 60.619304,73.037713 46.579181 0 0 2.4609,-9.55664 60.619304,73.037713 46.579181 0 0 -53.8965,-66.77539 z m -7.1191,32.56055 a 25.385034,35.901302 25.355731 0 1 20.1074,21.12109 h -49.2168 a 25.385034,35.901302 25.355731 0 1 29.1094,-21.12109 z"
         transform="matrix(0.26458334,0,0,0.26458334,0,11.249983)" />
      <path
         id="ellipse1509853"
         style="opacity:1;fill:#d1b000;fill-opacity:1;stroke:none;stroke-width:1.08136"
         d="m 1543.3438,560.54102 a 38.261544,46.099764 46.579191 0 0 -49.6836,42.14648 38.261544,46.099764 46.579191 0 0 34.0175,42.14648 38.261544,46.099764 46.579191 0 0 46.3555,-31.54296 h -27.1582 a 15.347278,22.471805 22.237053 0 1 -16.125,10.99218 15.347278,22.471805 22.237053 0 1 -11.5977,-21.5957 15.347278,22.471805 22.237053 0 1 20.3399,-21.59766 15.347278,22.471805 22.237053 0 1 11.5137,10.52539 h 26.8906 a 38.261544,46.099764 46.579191 0 0 -34.5527,-31.07421 z"
         transform="matrix(0.26458334,0,0,0.26458334,0,11.249983)" />
      <path
         id="ellipse1509857"
         style="opacity:1;fill:#d1b000;fill-opacity:1;stroke:none;stroke-width:1.08136"
         d="m 1631.3418,560.54102 a 38.261543,46.099763 46.579191 0 0 -49.6816,42.14648 38.261543,46.099763 46.579191 0 0 34.0175,42.14648 38.261543,46.099763 46.579191 0 0 49.6817,-42.14648 38.261543,46.099763 46.579191 0 0 -34.0176,-42.14648 z m -4.4941,20.54882 a 16.022463,22.660095 25.355729 0 1 12.2109,21.59766 16.022463,22.660095 25.355729 0 1 -21.4121,21.5957 16.022463,22.660095 25.355729 0 1 -12.211,-21.5957 16.022463,22.660095 25.355729 0 1 21.4122,-21.59766 z"
         transform="matrix(0.26458334,0,0,0.26458334,0,11.249983)" />
      <ellipse
         style="fill:#d1b000;fill-opacity:1;stroke:none;stroke-width:0.275339"
         id="ellipse1511544"
         cx="289.10901"
         cy="314.07645"
         rx="3.8602898"
         ry="3.4179528"
         transform="rotate(-22.758636)" />
      <path
         id="path1519782"
         style="fill:#d1b000;fill-opacity:1;stroke:none;stroke-width:0.622129px;stroke-linecap:butt;stroke-linejoin:miter;stroke-opacity:1"
         d="m 1737.9492,562.12305 c -9.157,-0.0338 -19.8979,3.13887 -30.2637,10.43945 l 1.8399,-10.10352 h -24.9453 l -15.0254,81.1211 h 25.2012 l 9.166,-50.34961 c 5.7446,-11.01498 30.386,-14.09549 29.5156,7.74609 l -7.8926,42.60352 h 25.2031 l 9.7891,-53.76172 c 8.3856,-7.98007 27.6722,-8.20935 26.9004,11.1582 l -7.8926,42.60352 h 25.2031 l 10.7129,-58.83789 c 4.312,-22.07553 -27.1271,-31.99814 -55.1621,-11.17383 -3.3523,-7.11676 -11.7996,-11.40639 -22.3496,-11.44531 z"
         transform="matrix(0.26458334,0,0,0.26458334,0,11.249983)" />
      <path
         id="path1522556"
         style="opacity:1;fill:#d1b000;fill-opacity:1;stroke:none;stroke-width:1.47637"
         d="m 365.16406,394.7793 a 166.90567,166.90567 0 0 0 -63.63086,12.61328 v 28.34961 h -33.3789 v -9.86328 a 166.90567,166.90567 0 0 0 -27.49219,24.66406 h 3.4375 v 33.37891 h -26.60742 a 166.90567,166.90567 0 0 0 -16.32422,46.8125 h 20.51953 v 33.3789 h -23.40039 a 166.90567,166.90567 0 0 0 3.29101,30.57617 h 27.78907 v 33.37891 h -17.31836 a 166.90567,166.90567 0 0 0 48.59375,63.72461 v -8.9707 h 33.3789 v 29.83007 A 166.90567,166.90567 0 0 0 365.16406,728.5918 166.90567,166.90567 0 0 0 532.07031,561.68555 166.90567,166.90567 0 0 0 365.16406,394.7793 Z M 221.6875,491.35547 h 33.37891 v 33.37891 H 221.6875 Z m 43.37891,6 h 28.18945 6.54102 l 17.07226,84.15039 46.82422,-84.15039 h 34.6543 L 376.86523,617.875 h -26.9414 l 11.03906,-69.94141 -37.28125,67.15039 -1.54883,2.79102 h -0.002 -21.74414 -0.002 l -1,-4.94727 0.002,-0.002 -14.20117,-70.29101 -13.41211,75.24023 h -26.93946 l 11.03711,-69.94141 z m 188.53125,22.68164 a 44.415525,53.510029 43.673505 0 1 39.12109,49.38281 44.415525,53.510029 43.673505 0 1 -1.78516,7.06641 h -15.60547 -15.10546 -37.0293 a 18.4863,26.463649 24.154548 0 0 14.65625,18.23828 18.4863,26.463649 24.154548 0 0 14.95117,-7.15234 h 33.23633 a 44.415525,53.510029 43.673505 0 1 -50.45313,31.23046 44.415525,53.510029 43.673505 0 1 -39.11914,-49.38281 44.415525,53.510029 43.673505 0 1 57.13282,-49.38281 z m -5.16602,24.08008 a 18.4863,26.463649 24.154548 0 0 -21.12891,15.61914 h 35.72266 a 18.4863,26.463649 24.154548 0 0 -14.59375,-15.61914 z m -215.06445,85.95117 h 33.3789 v 33.37891 h -33.3789 z"
         transform="matrix(0.26458334,0,0,0.26458334,0,11.249983)" />
      <rect
         style="opacity:1;fill:#d1b000;fill-opacity:1;stroke:none;stroke-width:0.423333"
         id="rect1522842"
         width="8.8314934"
         height="8.8314934"
         x="53.40218"
         y="118.15913" />
      <rect
         style="opacity:1;fill:#d1b000;fill-opacity:1;stroke:none;stroke-width:0.423333"
         id="rect1522844"
         width="8.8314934"
         height="8.8314934"
         x="44.80505"
         y="130.45607" />
      <rect
         style="opacity:1;fill:#d1b000;fill-opacity:1;stroke:none;stroke-width:0.423333"
         id="rect1522846"
         width="8.8314934"
         height="8.8314934"
         x="23.081406"
         y="131.70863" />
      <rect
         style="opacity:1;fill:#d1b000;fill-opacity:1;stroke:none;stroke-width:0.423333"
         id="rect1522848"
         width="8.8314934"
         height="8.8314934"
         x="31.97188"
         y="148.48137" />
      <rect
         style="opacity:1;fill:#d1b000;fill-opacity:1;stroke:none;stroke-width:0.423333"
         id="rect1522850"
         width="8.8314934"
         height="8.8314934"
         x="39.319717"
         y="168.59476" />
      <rect
         style="opacity:1;fill:#d1b000;fill-opacity:1;stroke:none;stroke-width:0.423333"
         id="rect1522852"
         width="8.8314934"
         height="8.8314934"
         x="22.949894"
         y="177.58551" />
      <rect
         style="opacity:1;fill:#d1b000;fill-opacity:1;stroke:none;stroke-width:0.423333"
         id="rect1522854"
         width="8.8314934"
         height="8.8314934"
         x="47.017612"
         y="191.10515" />
    </g>
  </g>
</svg>
